<svg width="37.288" height="35.363" viewBox="0 0 9.866 9.356" xmlns="http://www.w3.org/2000/svg"><g fill="#fff"><path d="M5.756.002a4.508 4.537 0 0 0-.671.03 4.508 4.537 0 0 0-3.939 4.023 4.508 4.537 0 0 0 3.006 4.77A4.508 4.537 0 0 0 9.445 6.95L5.628 4.538 9.866 2.99A4.508 4.537 0 0 0 5.756.002Zm.596.768c.786 0 1.416.664 1.416 1.453 0 .79-.63 1.452-1.416 1.452-.457 0-.862-.225-1.121-.568a.577.577 0 0 1-.373.085v3.659a.2.2 0 0 1-.201.2.2.2 0 0 1-.201-.2V2.985a.2.2 0 0 1 .002-.022.61.61 0 0 1-.125-.37.6.6 0 0 1 .59-.606h.03c.11-.68.694-1.217 1.4-1.217Zm0 .84c-.316 0-.58.263-.58.613 0 .351.264.612.58.612.317 0 .578-.26.578-.612 0-.35-.261-.613-.578-.613zm-1.43.772c-.107 0-.197.088-.197.21 0 .123.09.211.197.211a.19.19 0 0 0 .116-.039 1.462 1.462 0 0 1-.095-.381.208.208 0 0 0-.02-.001Z" paint-order="fill markers stroke"/><path d="M.185 8.855.172 8.85c-.001.003.004.004.013.005z"/><path d="M1.832 6.914s.019.753-.58 1.317A3.495 3.495 0 0 1 0 8.989s.904.485 1.986.34c1.082-.144 1.546-.763 1.546-.763z" paint-order="fill markers stroke"/></g></svg>