<?xml version="1.0" encoding="UTF-8" standalone="no"?>
<!-- Created with Inkscape (http://www.inkscape.org/) -->

<svg
   width="281.63672"
   height="267.10471"
   viewBox="0 0 74.516384 70.67145"
   version="1.1"
   id="svg5"
   xmlns="http://www.w3.org/2000/svg"
   xmlnsSvg="http://www.w3.org/2000/svg"
   xmlnsRdf="http://www.w3.org/1999/02/22-rdf-syntax-ns#"
   xmlnsCc="http://creativecommons.org/ns#"
   xmlnsDc="http://purl.org/dc/elements/1.1/">
  <title
     id="title15842">liltalks-logo-maskable</title>
  <defs
     id="defs2" />
  <g
     id="layer1"
     transform="translate(-31.00431,-27.89961)">
    <path
       id="path11759-3"
       style="fill:#ffffff;fill-opacity:1;stroke:none;stroke-width:4.60171;stroke-linecap:round;stroke-linejoin:round;stroke-miterlimit:4.1;stroke-dasharray:none;stroke-opacity:1;paint-order:fill markers stroke"
       d="M 74.481242,27.913542 A 34.046113,34.271437 0 0 0 69.4092,28.149186 34.046113,34.271437 0 0 0 39.660111,58.531311 34.046113,34.271437 0 0 0 44.827755,80.624019 c -0.08117,1.466472 -0.63834,5.935883 -4.366142,9.443868 -4.523396,4.256636 -9.457304,5.726266 -9.457304,5.726266 0,0 6.82737,3.663999 15.001152,2.57452 C 54.179232,97.279194 57.6802,92.597965 57.6802,92.597965 l -0.221175,-0.214973 a 34.046113,34.271437 0 0 0 4.910295,2.172994 34.046113,34.271437 0 0 0 39.97792,-14.16296 L 73.514893,62.172432 105.52069,50.486841 A 34.046113,34.271437 0 0 0 74.481242,27.913542 Z m 2.531112,6.259049 c 5.088164,0 9.187036,4.307104 9.187036,9.458854 0,5.151749 -4.098872,9.438701 -9.187036,9.438701 -2.959248,0 -5.589757,-1.449064 -7.273975,-3.676262 -0.624989,0.43778 -1.384653,0.701766 -2.197282,0.701766 -0.15224,0 -0.306039,-0.0067 -0.453719,-0.0248 v 24.268798 a 1.3256711,1.3344447 0 0 1 -1.319816,1.323951 1.3256711,1.3344447 0 0 1 -1.335319,-1.323951 V 48.691602 a 1.3256711,1.3344447 0 0 1 0.01964,-0.160714 c -0.51868,-0.684059 -0.826823,-1.540345 -0.826823,-2.457214 0,-2.1829 1.749022,-4.017326 3.91604,-4.017326 0.13208,0 0.259957,0.0068 0.388607,0.02015 0.728759,-4.43499 4.516444,-7.90391 9.08265,-7.90391 z m 0,4.987293 c -2.343368,0 -4.254521,1.938822 -4.254521,4.473628 0,2.534805 1.911153,4.473629 4.254521,4.473629 2.343377,0 4.255037,-1.938824 4.255037,-4.473629 0,-2.534806 -1.91166,-4.473628 -4.255037,-4.473628 z" />
  </g>
  <metadata
     id="metadata15840">
    <rdfRDF>
      <ccWork
         rdfAbout="">
        <dcTitle>liltalks-logo-maskable</dcTitle>
      </ccWork>
    </rdfRDF>
  </metadata>
</svg>
