<?xml version="1.0" standalone="no"?>
<!DOCTYPE svg PUBLIC "-//W3C//DTD SVG 20010904//EN"
 "http://www.w3.org/TR/2001/REC-SVG-20010904/DTD/svg10.dtd">
<svg version="1.0" xmlns="http://www.w3.org/2000/svg"
 width="350.000000pt" height="350.000000pt" viewBox="0 0 350.000000 350.000000"
 preserveAspectRatio="xMidYMid meet">
<metadata>
Created by potrace 1.14, written by Peter Selinger 2001-2017
</metadata>
<g transform="translate(0.000000,350.000000) scale(0.100000,-0.100000)"
fill="#000000" stroke="none">
<path d="M1868 3295 c-2 -2 -38 -6 -81 -10 -159 -14 -375 -81 -527 -163 -488
-265 -784 -772 -774 -1329 4 -261 78 -523 206 -731 16 -27 20 -44 15 -85 -6
-59 -40 -163 -70 -216 -26 -46 -94 -129 -131 -160 -15 -14 -33 -30 -40 -36
-46 -46 -291 -185 -326 -185 -43 0 44 -43 160 -79 141 -44 358 -59 494 -35
182 32 339 106 438 206 l37 38 73 -33 c75 -35 209 -82 263 -92 148 -29 206
-36 310 -39 108 -3 203 3 275 18 14 2 49 9 78 15 194 39 446 162 612 300 105
87 235 231 288 320 l21 35 -32 22 c-18 11 -230 146 -472 299 -242 153 -462
292 -490 310 -27 17 -92 58 -143 90 -51 32 -89 62 -85 66 8 8 115 47 683 253
162 59 312 113 333 121 95 38 119 47 229 86 l117 41 -20 52 c-89 225 -265 461
-459 611 -199 154 -432 254 -685 294 -61 10 -290 22 -297 16z m423 -264 c31
-7 84 -28 119 -49 263 -155 313 -518 103 -738 -146 -153 -377 -186 -558 -80
-22 13 -61 45 -87 71 l-47 46 -48 -14 c-26 -8 -54 -12 -60 -10 -10 4 -13 -121
-13 -602 l0 -606 -25 -24 c-29 -30 -58 -32 -85 -5 -20 20 -20 33 -20 663 0
634 0 644 -21 687 -55 113 20 256 143 276 34 6 39 11 49 48 43 165 186 304
352 341 60 13 120 12 198 -4z"/>
<path d="M2102 2749 c-167 -83 -119 -355 66 -373 120 -12 211 90 199 223 -12
134 -145 209 -265 150z"/>
<path d="M1678 2503 c-9 -10 -18 -27 -20 -38 -5 -24 18 -75 35 -76 6 0 20 -2
29 -4 28 -5 31 12 17 76 -14 63 -32 75 -61 42z"/>
</g>
</svg>
